<svg width="40" height="41" fill="none" xmlns="http://www.w3.org/2000/svg"><circle cx="20" cy="20.5" r="20" fill="#DFDFDF"/><path d="M27.77 15.92a6.304 6.304 0 01-1.745.479 3.01 3.01 0 001.332-1.674 6.05 6.05 0 01-1.92.733 3.027 3.027 0 00-5.237 2.07c0 .24.02.471.07.691a8.57 8.57 0 01-6.242-3.167 3.032 3.032 0 00.93 4.047 2.99 2.99 0 01-1.367-.373v.033a3.042 3.042 0 002.426 2.975c-.247.067-.515.1-.794.1a2.66 2.66 0 01-.574-.052 3.057 3.057 0 002.83 2.11 6.084 6.084 0 01-3.754 1.29c-.249 0-.487-.01-.725-.04a8.523 8.523 0 004.645 1.358c5.572 0 8.618-4.615 8.618-8.616a8.27 8.27 0 00-.011-.391 6.04 6.04 0 001.517-1.572z" fill="#211105"/></svg>